<?xml version="1.0" encoding="UTF-8" standalone="no"?><svg xmlns="http://www.w3.org/2000/svg" xmlns:xlink="http://www.w3.org/1999/xlink" contentStyleType="text/css" height="437px" preserveAspectRatio="none" style="width:541px;height:437px;background:#FFFFFF;" version="1.1" viewBox="0 0 541 437" width="541px" zoomAndPan="magnify"><defs/><g><rect fill="none" height="26.2969" id="_title" style="stroke:none;stroke-width:1.0;" width="339" x="100" y="10"/><text fill="#000000" font-family="sans-serif" font-size="14" font-weight="bold" lengthAdjust="spacing" textLength="329" x="105" y="27.9951">Create Master Catalog Sequence Diagram</text><rect fill="#FFFFFF" height="188.7969" style="stroke:#181818;stroke-width:1.0;" width="10" x="138" y="149.7266"/><rect fill="#FFFFFF" height="130.5313" style="stroke:#181818;stroke-width:1.0;" width="10" x="319.5" y="178.8594"/><rect fill="#FFFFFF" height="14" style="stroke:#181818;stroke-width:1.0;" width="10" x="486.5" y="207.9922"/><rect fill="#FFFFFF" height="29.1328" style="stroke:#181818;stroke-width:1.0;" width="10" x="486.5" y="251.125"/><line style="stroke:#181818;stroke-width:0.5;stroke-dasharray:5.0,5.0;" x1="24" x2="24" y1="118.5938" y2="356.5234"/><line style="stroke:#181818;stroke-width:0.5;stroke-dasharray:5.0,5.0;" x1="143" x2="143" y1="118.5938" y2="356.5234"/><line style="stroke:#181818;stroke-width:0.5;stroke-dasharray:5.0,5.0;" x1="324" x2="324" y1="118.5938" y2="356.5234"/><line style="stroke:#181818;stroke-width:0.5;stroke-dasharray:5.0,5.0;" x1="491" x2="491" y1="118.5938" y2="356.5234"/><text fill="#000000" font-family="sans-serif" font-size="14" lengthAdjust="spacing" textLength="32" x="5" y="115.292">User</text><ellipse cx="24" cy="50.7969" fill="#E2E2F0" rx="8" ry="8" style="stroke:#181818;stroke-width:0.5;"/><path d="M24,58.7969 L24,85.7969 M11,66.7969 L37,66.7969 M24,85.7969 L11,100.7969 M24,85.7969 L37,100.7969 " fill="none" style="stroke:#181818;stroke-width:0.5;"/><text fill="#000000" font-family="sans-serif" font-size="14" lengthAdjust="spacing" textLength="32" x="5" y="368.5186">User</text><ellipse cx="24" cy="380.3203" fill="#E2E2F0" rx="8" ry="8" style="stroke:#181818;stroke-width:0.5;"/><path d="M24,388.3203 L24,415.3203 M11,396.3203 L37,396.3203 M24,415.3203 L11,430.3203 M24,415.3203 L37,430.3203 " fill="none" style="stroke:#181818;stroke-width:0.5;"/><rect fill="#E2E2F0" height="30.2969" rx="2.5" ry="2.5" style="stroke:#181818;stroke-width:0.5;" width="180" x="53" y="87.2969"/><text fill="#000000" font-family="sans-serif" font-size="14" lengthAdjust="spacing" textLength="166" x="60" y="107.292">MasterCatalogController</text><rect fill="#E2E2F0" height="30.2969" rx="2.5" ry="2.5" style="stroke:#181818;stroke-width:0.5;" width="180" x="53" y="355.5234"/><text fill="#000000" font-family="sans-serif" font-size="14" lengthAdjust="spacing" textLength="166" x="60" y="375.5186">MasterCatalogController</text><rect fill="#E2E2F0" height="30.2969" rx="2.5" ry="2.5" style="stroke:#181818;stroke-width:0.5;" width="163" x="243" y="87.2969"/><text fill="#000000" font-family="sans-serif" font-size="14" lengthAdjust="spacing" textLength="149" x="250" y="107.292">MasterCatalogService</text><rect fill="#E2E2F0" height="30.2969" rx="2.5" ry="2.5" style="stroke:#181818;stroke-width:0.5;" width="163" x="243" y="355.5234"/><text fill="#000000" font-family="sans-serif" font-size="14" lengthAdjust="spacing" textLength="149" x="250" y="375.5186">MasterCatalogService</text><rect fill="#E2E2F0" height="30.2969" rx="2.5" ry="2.5" style="stroke:#181818;stroke-width:0.5;" width="87" x="448" y="87.2969"/><text fill="#000000" font-family="sans-serif" font-size="14" lengthAdjust="spacing" textLength="73" x="455" y="107.292">CatalogDB</text><rect fill="#E2E2F0" height="30.2969" rx="2.5" ry="2.5" style="stroke:#181818;stroke-width:0.5;" width="87" x="448" y="355.5234"/><text fill="#000000" font-family="sans-serif" font-size="14" lengthAdjust="spacing" textLength="73" x="455" y="375.5186">CatalogDB</text><rect fill="#FFFFFF" height="188.7969" style="stroke:#181818;stroke-width:1.0;" width="10" x="138" y="149.7266"/><rect fill="#FFFFFF" height="130.5313" style="stroke:#181818;stroke-width:1.0;" width="10" x="319.5" y="178.8594"/><rect fill="#FFFFFF" height="14" style="stroke:#181818;stroke-width:1.0;" width="10" x="486.5" y="207.9922"/><rect fill="#FFFFFF" height="29.1328" style="stroke:#181818;stroke-width:1.0;" width="10" x="486.5" y="251.125"/><polygon fill="#181818" points="126,145.7266,136,149.7266,126,153.7266,130,149.7266" style="stroke:#181818;stroke-width:1.0;"/><line style="stroke:#181818;stroke-width:1.0;" x1="24" x2="132" y1="149.7266" y2="149.7266"/><text fill="#000000" font-family="sans-serif" font-size="13" lengthAdjust="spacing" textLength="51" x="31" y="144.6606">create()</text><polygon fill="#181818" points="307.5,174.8594,317.5,178.8594,307.5,182.8594,311.5,178.8594" style="stroke:#181818;stroke-width:1.0;"/><line style="stroke:#181818;stroke-width:1.0;" x1="148" x2="313.5" y1="178.8594" y2="178.8594"/><text fill="#000000" font-family="sans-serif" font-size="13" lengthAdjust="spacing" textLength="100" x="155" y="173.7935">createProduct()</text><polygon fill="#181818" points="474.5,203.9922,484.5,207.9922,474.5,211.9922,478.5,207.9922" style="stroke:#181818;stroke-width:1.0;"/><line style="stroke:#181818;stroke-width:1.0;" x1="329.5" x2="480.5" y1="207.9922" y2="207.9922"/><text fill="#000000" font-family="sans-serif" font-size="13" lengthAdjust="spacing" textLength="138" x="336.5" y="202.9263">validatePartNumber()</text><polygon fill="#181818" points="340.5,217.9922,330.5,221.9922,340.5,225.9922,336.5,221.9922" style="stroke:#181818;stroke-width:1.0;"/><line style="stroke:#181818;stroke-width:1.0;stroke-dasharray:2.0,2.0;" x1="334.5" x2="490.5" y1="221.9922" y2="221.9922"/><polygon fill="#181818" points="474.5,247.125,484.5,251.125,474.5,255.125,478.5,251.125" style="stroke:#181818;stroke-width:1.0;"/><line style="stroke:#181818;stroke-width:1.0;" x1="329.5" x2="480.5" y1="251.125" y2="251.125"/><text fill="#000000" font-family="sans-serif" font-size="13" lengthAdjust="spacing" textLength="51" x="336.5" y="246.0591">create()</text><polygon fill="#181818" points="340.5,276.2578,330.5,280.2578,340.5,284.2578,336.5,280.2578" style="stroke:#181818;stroke-width:1.0;"/><line style="stroke:#181818;stroke-width:1.0;stroke-dasharray:2.0,2.0;" x1="334.5" x2="490.5" y1="280.2578" y2="280.2578"/><text fill="#000000" font-family="sans-serif" font-size="13" lengthAdjust="spacing" textLength="59" x="346.5" y="275.1919">[product]</text><polygon fill="#181818" points="159,305.3906,149,309.3906,159,313.3906,155,309.3906" style="stroke:#181818;stroke-width:1.0;"/><line style="stroke:#181818;stroke-width:1.0;stroke-dasharray:2.0,2.0;" x1="153" x2="323.5" y1="309.3906" y2="309.3906"/><text fill="#000000" font-family="sans-serif" font-size="13" lengthAdjust="spacing" textLength="59" x="165" y="304.3247">[product]</text><polygon fill="#181818" points="35,334.5234,25,338.5234,35,342.5234,31,338.5234" style="stroke:#181818;stroke-width:1.0;"/><line style="stroke:#181818;stroke-width:1.0;stroke-dasharray:2.0,2.0;" x1="29" x2="142" y1="338.5234" y2="338.5234"/><text fill="#000000" font-family="sans-serif" font-size="13" lengthAdjust="spacing" textLength="59" x="41" y="333.4575">[product]</text><!--MD5=[9df52154a3a2b1eedd66c8bcd6e990f3]
@startuml
actor User
title Create Master Catalog Sequence Diagram


User -> MasterCatalogController: create()
activate MasterCatalogController
MasterCatalogController -> MasterCatalogService: createProduct()
activate MasterCatalogService
MasterCatalogService -> CatalogDB: validatePartNumber()
activate CatalogDB
CatalogDB - -> MasterCatalogService
deactivate CatalogDB
MasterCatalogService -> CatalogDB: create()
activate CatalogDB
CatalogDB - -> MasterCatalogService: [product]
deactivate CatalogDB
MasterCatalogService - -> MasterCatalogController: [product]
deactivate MasterCatalogService
MasterCatalogController - -> User: [product]
deactivate MasterCatalogController
@enduml

PlantUML version 1.2022.7(Mon Aug 22 17:01:30 UTC 2022)
(GPL source distribution)
Java Runtime: OpenJDK Runtime Environment
JVM: OpenJDK 64-Bit Server VM
Default Encoding: UTF-8
Language: en
Country: null
--></g></svg>