<?xml version="1.0" encoding="UTF-8" standalone="no"?><svg xmlns="http://www.w3.org/2000/svg" xmlns:xlink="http://www.w3.org/1999/xlink" contentStyleType="text/css" height="507px" preserveAspectRatio="none" style="width:1169px;height:507px;background:#FFFFFF;" version="1.1" viewBox="0 0 1169 507" width="1169px" zoomAndPan="magnify"><defs/><g><rect fill="none" height="26.2969" id="_title" style="stroke:none;stroke-width:1.0;" width="373" x="399.5" y="10"/><text fill="#000000" font-family="sans-serif" font-size="14" font-weight="bold" lengthAdjust="spacing" textLength="363" x="404.5" y="27.9951">Deleting a Catalog Product Sequence Diagram</text><line style="stroke:#181818;stroke-width:0.5;stroke-dasharray:5.0,5.0;" x1="27" x2="27" y1="118.5938" y2="426.7891"/><line style="stroke:#181818;stroke-width:0.5;stroke-dasharray:5.0,5.0;" x1="355" x2="355" y1="118.5938" y2="426.7891"/><line style="stroke:#181818;stroke-width:0.5;stroke-dasharray:5.0,5.0;" x1="704.5" x2="704.5" y1="118.5938" y2="426.7891"/><line style="stroke:#181818;stroke-width:0.5;stroke-dasharray:5.0,5.0;" x1="1128" x2="1128" y1="118.5938" y2="426.7891"/><text fill="#000000" font-family="sans-serif" font-size="14" lengthAdjust="spacing" textLength="39" x="5" y="115.292">Client</text><ellipse cx="27.5" cy="50.7969" fill="#E2E2F0" rx="8" ry="8" style="stroke:#181818;stroke-width:0.5;"/><path d="M27.5,58.7969 L27.5,85.7969 M14.5,66.7969 L40.5,66.7969 M27.5,85.7969 L14.5,100.7969 M27.5,85.7969 L40.5,100.7969 " fill="none" style="stroke:#181818;stroke-width:0.5;"/><text fill="#000000" font-family="sans-serif" font-size="14" lengthAdjust="spacing" textLength="39" x="5" y="438.7842">Client</text><ellipse cx="27.5" cy="450.5859" fill="#E2E2F0" rx="8" ry="8" style="stroke:#181818;stroke-width:0.5;"/><path d="M27.5,458.5859 L27.5,485.5859 M14.5,466.5859 L40.5,466.5859 M27.5,485.5859 L14.5,500.5859 M27.5,485.5859 L40.5,500.5859 " fill="none" style="stroke:#181818;stroke-width:0.5;"/><rect fill="#E2E2F0" height="30.2969" rx="2.5" ry="2.5" style="stroke:#181818;stroke-width:0.5;" width="133" x="289" y="87.2969"/><text fill="#000000" font-family="sans-serif" font-size="14" lengthAdjust="spacing" textLength="119" x="296" y="107.292">CatalogController</text><rect fill="#E2E2F0" height="30.2969" rx="2.5" ry="2.5" style="stroke:#181818;stroke-width:0.5;" width="133" x="289" y="425.7891"/><text fill="#000000" font-family="sans-serif" font-size="14" lengthAdjust="spacing" textLength="119" x="296" y="445.7842">CatalogController</text><rect fill="#E2E2F0" height="30.2969" rx="2.5" ry="2.5" style="stroke:#181818;stroke-width:0.5;" width="116" x="646.5" y="87.2969"/><text fill="#000000" font-family="sans-serif" font-size="14" lengthAdjust="spacing" textLength="102" x="653.5" y="107.292">CatalogService</text><rect fill="#E2E2F0" height="30.2969" rx="2.5" ry="2.5" style="stroke:#181818;stroke-width:0.5;" width="116" x="646.5" y="425.7891"/><text fill="#000000" font-family="sans-serif" font-size="14" lengthAdjust="spacing" textLength="102" x="653.5" y="445.7842">CatalogService</text><text fill="#000000" font-family="sans-serif" font-size="14" lengthAdjust="spacing" textLength="73" x="1089" y="115.292">CatalogDB</text><path d="M1110.5,66.2969 C1110.5,56.2969 1128.5,56.2969 1128.5,56.2969 C1128.5,56.2969 1146.5,56.2969 1146.5,66.2969 L1146.5,92.2969 C1146.5,102.2969 1128.5,102.2969 1128.5,102.2969 C1128.5,102.2969 1110.5,102.2969 1110.5,92.2969 L1110.5,66.2969 " fill="#E2E2F0" style="stroke:#181818;stroke-width:1.5;"/><path d="M1110.5,66.2969 C1110.5,76.2969 1128.5,76.2969 1128.5,76.2969 C1128.5,76.2969 1146.5,76.2969 1146.5,66.2969 " fill="none" style="stroke:#181818;stroke-width:1.5;"/><text fill="#000000" font-family="sans-serif" font-size="14" lengthAdjust="spacing" textLength="73" x="1089" y="438.7842">CatalogDB</text><path d="M1110.5,452.0859 C1110.5,442.0859 1128.5,442.0859 1128.5,442.0859 C1128.5,442.0859 1146.5,442.0859 1146.5,452.0859 L1146.5,478.0859 C1146.5,488.0859 1128.5,488.0859 1128.5,488.0859 C1128.5,488.0859 1110.5,488.0859 1110.5,478.0859 L1110.5,452.0859 " fill="#E2E2F0" style="stroke:#181818;stroke-width:1.5;"/><path d="M1110.5,452.0859 C1110.5,462.0859 1128.5,462.0859 1128.5,462.0859 C1128.5,462.0859 1146.5,462.0859 1146.5,452.0859 " fill="none" style="stroke:#181818;stroke-width:1.5;"/><polygon fill="#181818" points="343.5,145.7266,353.5,149.7266,343.5,153.7266,347.5,149.7266" style="stroke:#181818;stroke-width:1.0;"/><line style="stroke:#181818;stroke-width:1.0;" x1="27.5" x2="349.5" y1="149.7266" y2="149.7266"/><text fill="#000000" font-family="sans-serif" font-size="13" lengthAdjust="spacing" textLength="304" x="34.5" y="144.6606">DELETE /catalogs/:catalogId/products/:productId</text><polygon fill="#181818" points="692.5,174.8594,702.5,178.8594,692.5,182.8594,696.5,178.8594" style="stroke:#181818;stroke-width:1.0;"/><line style="stroke:#181818;stroke-width:1.0;" x1="355.5" x2="698.5" y1="178.8594" y2="178.8594"/><text fill="#000000" font-family="sans-serif" font-size="13" lengthAdjust="spacing" textLength="325" x="362.5" y="173.7935">deleteCatalogProduct(productId, catalogId, user.id)</text><line style="stroke:#181818;stroke-width:1.0;" x1="704.5" x2="746.5" y1="207.9922" y2="207.9922"/><line style="stroke:#181818;stroke-width:1.0;" x1="746.5" x2="746.5" y1="207.9922" y2="220.9922"/><line style="stroke:#181818;stroke-width:1.0;" x1="705.5" x2="746.5" y1="220.9922" y2="220.9922"/><polygon fill="#181818" points="715.5,216.9922,705.5,220.9922,715.5,224.9922,711.5,220.9922" style="stroke:#181818;stroke-width:1.0;"/><text fill="#000000" font-family="sans-serif" font-size="13" lengthAdjust="spacing" textLength="410" x="711.5" y="202.9263">validateCatalogProductParameters(catalogId, user.id, productId)</text><polygon fill="#181818" points="1116.5,246.125,1126.5,250.125,1116.5,254.125,1120.5,250.125" style="stroke:#181818;stroke-width:1.0;"/><line style="stroke:#181818;stroke-width:1.0;" x1="704.5" x2="1122.5" y1="250.125" y2="250.125"/><text fill="#000000" font-family="sans-serif" font-size="13" lengthAdjust="spacing" textLength="234" x="711.5" y="245.0591">product.findUnique({ id: productId })</text><polygon fill="#181818" points="715.5,275.2578,705.5,279.2578,715.5,283.2578,711.5,279.2578" style="stroke:#181818;stroke-width:1.0;"/><line style="stroke:#181818;stroke-width:1.0;stroke-dasharray:2.0,2.0;" x1="709.5" x2="1127.5" y1="279.2578" y2="279.2578"/><text fill="#000000" font-family="sans-serif" font-size="13" lengthAdjust="spacing" textLength="133" x="721.5" y="274.1919">catalog product data</text><line style="stroke:#181818;stroke-width:1.0;" x1="704.5" x2="746.5" y1="308.3906" y2="308.3906"/><line style="stroke:#181818;stroke-width:1.0;" x1="746.5" x2="746.5" y1="308.3906" y2="321.3906"/><line style="stroke:#181818;stroke-width:1.0;" x1="705.5" x2="746.5" y1="321.3906" y2="321.3906"/><polygon fill="#181818" points="715.5,317.3906,705.5,321.3906,715.5,325.3906,711.5,321.3906" style="stroke:#181818;stroke-width:1.0;"/><text fill="#000000" font-family="sans-serif" font-size="13" lengthAdjust="spacing" textLength="188" x="711.5" y="303.3247">Assert.assertTrue(dbProduct)</text><polygon fill="#181818" points="1116.5,346.5234,1126.5,350.5234,1116.5,354.5234,1120.5,350.5234" style="stroke:#181818;stroke-width:1.0;"/><line style="stroke:#181818;stroke-width:1.0;" x1="704.5" x2="1122.5" y1="350.5234" y2="350.5234"/><text fill="#000000" font-family="sans-serif" font-size="13" lengthAdjust="spacing" textLength="206" x="711.5" y="345.4575">product.delete({ id: productId })</text><polygon fill="#181818" points="366.5,375.6563,356.5,379.6563,366.5,383.6563,362.5,379.6563" style="stroke:#181818;stroke-width:1.0;"/><line style="stroke:#181818;stroke-width:1.0;stroke-dasharray:2.0,2.0;" x1="360.5" x2="703.5" y1="379.6563" y2="379.6563"/><text fill="#000000" font-family="sans-serif" font-size="13" lengthAdjust="spacing" textLength="137" x="372.5" y="374.5903">HTTP 204 No Content</text><polygon fill="#181818" points="38.5,404.7891,28.5,408.7891,38.5,412.7891,34.5,408.7891" style="stroke:#181818;stroke-width:1.0;"/><line style="stroke:#181818;stroke-width:1.0;stroke-dasharray:2.0,2.0;" x1="32.5" x2="354.5" y1="408.7891" y2="408.7891"/><text fill="#000000" font-family="sans-serif" font-size="13" lengthAdjust="spacing" textLength="194" x="44.5" y="403.7231">return no content as response</text><!--MD5=[52904f8586e82bcc83247a29ca90ba61]
@startuml
title Deleting a Catalog Product Sequence Diagram

actor Client
participant CatalogController
participant CatalogService
database CatalogDB

Client -> CatalogController: DELETE /catalogs/:catalogId/products/:productId
CatalogController -> CatalogService: deleteCatalogProduct(productId, catalogId, user.id)
CatalogService -> CatalogService: validateCatalogProductParameters(catalogId, user.id, productId)
CatalogService -> CatalogDB: product.findUnique({ id: productId })
CatalogDB - -> CatalogService: catalog product data
CatalogService -> CatalogService: Assert.assertTrue(dbProduct)
CatalogService -> CatalogDB: product.delete({ id: productId })
CatalogService - -> CatalogController: HTTP 204 No Content
CatalogController - -> Client: return no content as response
@enduml

PlantUML version 1.2022.7(Mon Aug 22 17:01:30 UTC 2022)
(GPL source distribution)
Java Runtime: OpenJDK Runtime Environment
JVM: OpenJDK 64-Bit Server VM
Default Encoding: UTF-8
Language: en
Country: null
--></g></svg>