<?xml version="1.0" encoding="UTF-8" standalone="no"?><svg xmlns="http://www.w3.org/2000/svg" xmlns:xlink="http://www.w3.org/1999/xlink" contentStyleType="text/css" height="363px" preserveAspectRatio="none" style="width:509px;height:363px;background:#FFFFFF;" version="1.1" viewBox="0 0 509 363" width="509px" zoomAndPan="magnify"><defs/><g><rect fill="none" height="26.2969" id="_title" style="stroke:none;stroke-width:1.0;" width="337" x="85" y="10"/><text fill="#000000" font-family="sans-serif" font-size="14" font-weight="bold" lengthAdjust="spacing" textLength="327" x="90" y="27.9951">Delete Master Catalog Sequence Diagram</text><rect fill="#FFFFFF" height="115.3984" style="stroke:#181818;stroke-width:1.0;" width="10" x="138" y="149.7266"/><rect fill="#FFFFFF" height="72.2656" style="stroke:#181818;stroke-width:1.0;" width="10" x="319.5" y="178.8594"/><rect fill="#FFFFFF" height="29.1328" style="stroke:#181818;stroke-width:1.0;" width="10" x="454.5" y="207.9922"/><line style="stroke:#181818;stroke-width:0.5;stroke-dasharray:5.0,5.0;" x1="24" x2="24" y1="118.5938" y2="283.125"/><line style="stroke:#181818;stroke-width:0.5;stroke-dasharray:5.0,5.0;" x1="143" x2="143" y1="118.5938" y2="283.125"/><line style="stroke:#181818;stroke-width:0.5;stroke-dasharray:5.0,5.0;" x1="324" x2="324" y1="118.5938" y2="283.125"/><line style="stroke:#181818;stroke-width:0.5;stroke-dasharray:5.0,5.0;" x1="459" x2="459" y1="118.5938" y2="283.125"/><text fill="#000000" font-family="sans-serif" font-size="14" lengthAdjust="spacing" textLength="32" x="5" y="115.292">User</text><ellipse cx="24" cy="50.7969" fill="#E2E2F0" rx="8" ry="8" style="stroke:#181818;stroke-width:0.5;"/><path d="M24,58.7969 L24,85.7969 M11,66.7969 L37,66.7969 M24,85.7969 L11,100.7969 M24,85.7969 L37,100.7969 " fill="none" style="stroke:#181818;stroke-width:0.5;"/><text fill="#000000" font-family="sans-serif" font-size="14" lengthAdjust="spacing" textLength="32" x="5" y="295.1201">User</text><ellipse cx="24" cy="306.9219" fill="#E2E2F0" rx="8" ry="8" style="stroke:#181818;stroke-width:0.5;"/><path d="M24,314.9219 L24,341.9219 M11,322.9219 L37,322.9219 M24,341.9219 L11,356.9219 M24,341.9219 L37,356.9219 " fill="none" style="stroke:#181818;stroke-width:0.5;"/><rect fill="#E2E2F0" height="30.2969" rx="2.5" ry="2.5" style="stroke:#181818;stroke-width:0.5;" width="180" x="53" y="87.2969"/><text fill="#000000" font-family="sans-serif" font-size="14" lengthAdjust="spacing" textLength="166" x="60" y="107.292">MasterCatalogController</text><rect fill="#E2E2F0" height="30.2969" rx="2.5" ry="2.5" style="stroke:#181818;stroke-width:0.5;" width="180" x="53" y="282.125"/><text fill="#000000" font-family="sans-serif" font-size="14" lengthAdjust="spacing" textLength="166" x="60" y="302.1201">MasterCatalogController</text><rect fill="#E2E2F0" height="30.2969" rx="2.5" ry="2.5" style="stroke:#181818;stroke-width:0.5;" width="163" x="243" y="87.2969"/><text fill="#000000" font-family="sans-serif" font-size="14" lengthAdjust="spacing" textLength="149" x="250" y="107.292">MasterCatalogService</text><rect fill="#E2E2F0" height="30.2969" rx="2.5" ry="2.5" style="stroke:#181818;stroke-width:0.5;" width="163" x="243" y="282.125"/><text fill="#000000" font-family="sans-serif" font-size="14" lengthAdjust="spacing" textLength="149" x="250" y="302.1201">MasterCatalogService</text><rect fill="#E2E2F0" height="30.2969" rx="2.5" ry="2.5" style="stroke:#181818;stroke-width:0.5;" width="87" x="416" y="87.2969"/><text fill="#000000" font-family="sans-serif" font-size="14" lengthAdjust="spacing" textLength="73" x="423" y="107.292">CatalogDB</text><rect fill="#E2E2F0" height="30.2969" rx="2.5" ry="2.5" style="stroke:#181818;stroke-width:0.5;" width="87" x="416" y="282.125"/><text fill="#000000" font-family="sans-serif" font-size="14" lengthAdjust="spacing" textLength="73" x="423" y="302.1201">CatalogDB</text><rect fill="#FFFFFF" height="115.3984" style="stroke:#181818;stroke-width:1.0;" width="10" x="138" y="149.7266"/><rect fill="#FFFFFF" height="72.2656" style="stroke:#181818;stroke-width:1.0;" width="10" x="319.5" y="178.8594"/><rect fill="#FFFFFF" height="29.1328" style="stroke:#181818;stroke-width:1.0;" width="10" x="454.5" y="207.9922"/><polygon fill="#181818" points="126,145.7266,136,149.7266,126,153.7266,130,149.7266" style="stroke:#181818;stroke-width:1.0;"/><line style="stroke:#181818;stroke-width:1.0;" x1="24" x2="132" y1="149.7266" y2="149.7266"/><text fill="#000000" font-family="sans-serif" font-size="13" lengthAdjust="spacing" textLength="50" x="31" y="144.6606">delete()</text><polygon fill="#181818" points="307.5,174.8594,317.5,178.8594,307.5,182.8594,311.5,178.8594" style="stroke:#181818;stroke-width:1.0;"/><line style="stroke:#181818;stroke-width:1.0;" x1="148" x2="313.5" y1="178.8594" y2="178.8594"/><text fill="#000000" font-family="sans-serif" font-size="13" lengthAdjust="spacing" textLength="99" x="155" y="173.7935">deleteProduct()</text><polygon fill="#181818" points="442.5,203.9922,452.5,207.9922,442.5,211.9922,446.5,207.9922" style="stroke:#181818;stroke-width:1.0;"/><line style="stroke:#181818;stroke-width:1.0;" x1="329.5" x2="448.5" y1="207.9922" y2="207.9922"/><text fill="#000000" font-family="sans-serif" font-size="13" lengthAdjust="spacing" textLength="50" x="336.5" y="202.9263">delete()</text><polygon fill="#181818" points="340.5,233.125,330.5,237.125,340.5,241.125,336.5,237.125" style="stroke:#181818;stroke-width:1.0;"/><line style="stroke:#181818;stroke-width:1.0;stroke-dasharray:2.0,2.0;" x1="334.5" x2="458.5" y1="237.125" y2="237.125"/><text fill="#000000" font-family="sans-serif" font-size="13" lengthAdjust="spacing" textLength="59" x="346.5" y="232.0591">[product]</text><polygon fill="#181818" points="159,247.125,149,251.125,159,255.125,155,251.125" style="stroke:#181818;stroke-width:1.0;"/><line style="stroke:#181818;stroke-width:1.0;stroke-dasharray:2.0,2.0;" x1="153" x2="323.5" y1="251.125" y2="251.125"/><polygon fill="#181818" points="35,261.125,25,265.125,35,269.125,31,265.125" style="stroke:#181818;stroke-width:1.0;"/><line style="stroke:#181818;stroke-width:1.0;stroke-dasharray:2.0,2.0;" x1="29" x2="142" y1="265.125" y2="265.125"/><!--MD5=[422c0538f167e6b14ddca32cb8af28f8]
@startuml
actor User
title Delete Master Catalog Sequence Diagram


User -> MasterCatalogController: delete()
activate MasterCatalogController

MasterCatalogController -> MasterCatalogService: deleteProduct()
activate MasterCatalogService

MasterCatalogService -> CatalogDB: delete()
activate CatalogDB

CatalogDB - -> MasterCatalogService: [product]
deactivate CatalogDB

MasterCatalogService - -> MasterCatalogController
deactivate MasterCatalogService

MasterCatalogController - -> User
deactivate MasterCatalogController
@enduml

PlantUML version 1.2022.7(Mon Aug 22 17:01:30 UTC 2022)
(GPL source distribution)
Java Runtime: OpenJDK Runtime Environment
JVM: OpenJDK 64-Bit Server VM
Default Encoding: UTF-8
Language: en
Country: null
--></g></svg>