<?xml version="1.0" encoding="UTF-8" standalone="no"?><svg xmlns="http://www.w3.org/2000/svg" xmlns:xlink="http://www.w3.org/1999/xlink" contentStyleType="text/css" height="536px" preserveAspectRatio="none" style="width:1009px;height:536px;background:#FFFFFF;" version="1.1" viewBox="0 0 1009 536" width="1009px" zoomAndPan="magnify"><defs/><g><rect fill="none" height="26.2969" id="_title" style="stroke:none;stroke-width:1.0;" width="314" x="349.25" y="10"/><text fill="#000000" font-family="sans-serif" font-size="14" font-weight="bold" lengthAdjust="spacing" textLength="304" x="354.25" y="27.9951">Get Master Catalog Sequence Diagram</text><line style="stroke:#181818;stroke-width:0.5;stroke-dasharray:5.0,5.0;" x1="27" x2="27" y1="118.5938" y2="455.9219"/><line style="stroke:#181818;stroke-width:0.5;stroke-dasharray:5.0,5.0;" x1="313" x2="313" y1="118.5938" y2="455.9219"/><line style="stroke:#181818;stroke-width:0.5;stroke-dasharray:5.0,5.0;" x1="555.5" x2="555.5" y1="118.5938" y2="455.9219"/><line style="stroke:#181818;stroke-width:0.5;stroke-dasharray:5.0,5.0;" x1="957.5" x2="957.5" y1="118.5938" y2="455.9219"/><text fill="#000000" font-family="sans-serif" font-size="14" lengthAdjust="spacing" textLength="39" x="5" y="115.292">Client</text><ellipse cx="27.5" cy="50.7969" fill="#E2E2F0" rx="8" ry="8" style="stroke:#181818;stroke-width:0.5;"/><path d="M27.5,58.7969 L27.5,85.7969 M14.5,66.7969 L40.5,66.7969 M27.5,85.7969 L14.5,100.7969 M27.5,85.7969 L40.5,100.7969 " fill="none" style="stroke:#181818;stroke-width:0.5;"/><text fill="#000000" font-family="sans-serif" font-size="14" lengthAdjust="spacing" textLength="39" x="5" y="467.917">Client</text><ellipse cx="27.5" cy="479.7188" fill="#E2E2F0" rx="8" ry="8" style="stroke:#181818;stroke-width:0.5;"/><path d="M27.5,487.7188 L27.5,514.7188 M14.5,495.7188 L40.5,495.7188 M27.5,514.7188 L14.5,529.7188 M27.5,514.7188 L40.5,529.7188 " fill="none" style="stroke:#181818;stroke-width:0.5;"/><rect fill="#E2E2F0" height="30.2969" rx="2.5" ry="2.5" style="stroke:#181818;stroke-width:0.5;" width="133" x="247" y="87.2969"/><text fill="#000000" font-family="sans-serif" font-size="14" lengthAdjust="spacing" textLength="119" x="254" y="107.292">CatalogController</text><rect fill="#E2E2F0" height="30.2969" rx="2.5" ry="2.5" style="stroke:#181818;stroke-width:0.5;" width="133" x="247" y="454.9219"/><text fill="#000000" font-family="sans-serif" font-size="14" lengthAdjust="spacing" textLength="119" x="254" y="474.917">CatalogController</text><rect fill="#E2E2F0" height="30.2969" rx="2.5" ry="2.5" style="stroke:#181818;stroke-width:0.5;" width="116" x="497.5" y="87.2969"/><text fill="#000000" font-family="sans-serif" font-size="14" lengthAdjust="spacing" textLength="102" x="504.5" y="107.292">CatalogService</text><rect fill="#E2E2F0" height="30.2969" rx="2.5" ry="2.5" style="stroke:#181818;stroke-width:0.5;" width="116" x="497.5" y="454.9219"/><text fill="#000000" font-family="sans-serif" font-size="14" lengthAdjust="spacing" textLength="102" x="504.5" y="474.917">CatalogService</text><text fill="#000000" font-family="sans-serif" font-size="14" lengthAdjust="spacing" textLength="96" x="906.5" y="115.292">PrismaService</text><path d="M939.5,66.2969 C939.5,56.2969 957.5,56.2969 957.5,56.2969 C957.5,56.2969 975.5,56.2969 975.5,66.2969 L975.5,92.2969 C975.5,102.2969 957.5,102.2969 957.5,102.2969 C957.5,102.2969 939.5,102.2969 939.5,92.2969 L939.5,66.2969 " fill="#E2E2F0" style="stroke:#181818;stroke-width:1.5;"/><path d="M939.5,66.2969 C939.5,76.2969 957.5,76.2969 957.5,76.2969 C957.5,76.2969 975.5,76.2969 975.5,66.2969 " fill="none" style="stroke:#181818;stroke-width:1.5;"/><text fill="#000000" font-family="sans-serif" font-size="14" lengthAdjust="spacing" textLength="96" x="906.5" y="467.917">PrismaService</text><path d="M939.5,481.2188 C939.5,471.2188 957.5,471.2188 957.5,471.2188 C957.5,471.2188 975.5,471.2188 975.5,481.2188 L975.5,507.2188 C975.5,517.2188 957.5,517.2188 957.5,517.2188 C957.5,517.2188 939.5,517.2188 939.5,507.2188 L939.5,481.2188 " fill="#E2E2F0" style="stroke:#181818;stroke-width:1.5;"/><path d="M939.5,481.2188 C939.5,491.2188 957.5,491.2188 957.5,491.2188 C957.5,491.2188 975.5,491.2188 975.5,481.2188 " fill="none" style="stroke:#181818;stroke-width:1.5;"/><polygon fill="#181818" points="301.5,145.7266,311.5,149.7266,301.5,153.7266,305.5,149.7266" style="stroke:#181818;stroke-width:1.0;"/><line style="stroke:#181818;stroke-width:1.0;" x1="27.5" x2="307.5" y1="149.7266" y2="149.7266"/><text fill="#000000" font-family="sans-serif" font-size="13" lengthAdjust="spacing" textLength="262" x="34.5" y="144.6606">GET /catalogs/:catalogId/master-catalogs</text><polygon fill="#181818" points="543.5,174.8594,553.5,178.8594,543.5,182.8594,547.5,178.8594" style="stroke:#181818;stroke-width:1.0;"/><line style="stroke:#181818;stroke-width:1.0;" x1="313.5" x2="549.5" y1="178.8594" y2="178.8594"/><text fill="#000000" font-family="sans-serif" font-size="13" lengthAdjust="spacing" textLength="218" x="320.5" y="173.7935">getMasterCatalog(catalogId, user)</text><polygon fill="#181818" points="945.5,203.9922,955.5,207.9922,945.5,211.9922,949.5,207.9922" style="stroke:#181818;stroke-width:1.0;"/><line style="stroke:#181818;stroke-width:1.0;" x1="555.5" x2="951.5" y1="207.9922" y2="207.9922"/><text fill="#000000" font-family="sans-serif" font-size="13" lengthAdjust="spacing" textLength="118" x="562.5" y="202.9263">findById(catalogId)</text><polygon fill="#181818" points="566.5,233.125,556.5,237.125,566.5,241.125,562.5,237.125" style="stroke:#181818;stroke-width:1.0;"/><line style="stroke:#181818;stroke-width:1.0;stroke-dasharray:2.0,2.0;" x1="560.5" x2="956.5" y1="237.125" y2="237.125"/><text fill="#000000" font-family="sans-serif" font-size="13" lengthAdjust="spacing" textLength="84" x="572.5" y="232.0591">Catalog Data</text><line style="stroke:#181818;stroke-width:1.0;" x1="555.5" x2="597.5" y1="266.2578" y2="266.2578"/><line style="stroke:#181818;stroke-width:1.0;" x1="597.5" x2="597.5" y1="266.2578" y2="279.2578"/><line style="stroke:#181818;stroke-width:1.0;" x1="556.5" x2="597.5" y1="279.2578" y2="279.2578"/><polygon fill="#181818" points="566.5,275.2578,556.5,279.2578,566.5,283.2578,562.5,279.2578" style="stroke:#181818;stroke-width:1.0;"/><text fill="#000000" font-family="sans-serif" font-size="13" lengthAdjust="spacing" textLength="388" x="562.5" y="261.1919">check if catalog exists and if user has necessary permissions</text><polygon fill="#181818" points="945.5,304.3906,955.5,308.3906,945.5,312.3906,949.5,308.3906" style="stroke:#181818;stroke-width:1.0;"/><line style="stroke:#181818;stroke-width:1.0;" x1="555.5" x2="951.5" y1="308.3906" y2="308.3906"/><text fill="#000000" font-family="sans-serif" font-size="13" lengthAdjust="spacing" textLength="50" x="562.5" y="303.3247">findFirst</text><polygon fill="#181818" points="566.5,333.5234,556.5,337.5234,566.5,341.5234,562.5,337.5234" style="stroke:#181818;stroke-width:1.0;"/><line style="stroke:#181818;stroke-width:1.0;stroke-dasharray:2.0,2.0;" x1="560.5" x2="956.5" y1="337.5234" y2="337.5234"/><text fill="#000000" font-family="sans-serif" font-size="13" lengthAdjust="spacing" textLength="132" x="572.5" y="332.4575">Master Catalog Data</text><line style="stroke:#181818;stroke-width:1.0;" x1="555.5" x2="597.5" y1="366.6563" y2="366.6563"/><line style="stroke:#181818;stroke-width:1.0;" x1="597.5" x2="597.5" y1="366.6563" y2="379.6563"/><line style="stroke:#181818;stroke-width:1.0;" x1="556.5" x2="597.5" y1="379.6563" y2="379.6563"/><polygon fill="#181818" points="566.5,375.6563,556.5,379.6563,566.5,383.6563,562.5,379.6563" style="stroke:#181818;stroke-width:1.0;"/><text fill="#000000" font-family="sans-serif" font-size="13" lengthAdjust="spacing" textLength="206" x="562.5" y="361.5903">manipulate master catalog data</text><polygon fill="#181818" points="324.5,404.7891,314.5,408.7891,324.5,412.7891,320.5,408.7891" style="stroke:#181818;stroke-width:1.0;"/><line style="stroke:#181818;stroke-width:1.0;stroke-dasharray:2.0,2.0;" x1="318.5" x2="554.5" y1="408.7891" y2="408.7891"/><text fill="#000000" font-family="sans-serif" font-size="13" lengthAdjust="spacing" textLength="130" x="330.5" y="403.7231">master catalog data</text><polygon fill="#181818" points="38.5,433.9219,28.5,437.9219,38.5,441.9219,34.5,437.9219" style="stroke:#181818;stroke-width:1.0;"/><line style="stroke:#181818;stroke-width:1.0;stroke-dasharray:2.0,2.0;" x1="32.5" x2="312.5" y1="437.9219" y2="437.9219"/><text fill="#000000" font-family="sans-serif" font-size="13" lengthAdjust="spacing" textLength="255" x="44.5" y="432.856">return master catalog data as response</text><!--MD5=[fd559407231b0da71cebb228a420971e]
@startuml
title Get Master Catalog Sequence Diagram

actor Client
participant CatalogController
participant CatalogService
database PrismaService
Client -> CatalogController: GET /catalogs/:catalogId/master-catalogs
CatalogController -> CatalogService: getMasterCatalog(catalogId, user)
CatalogService -> PrismaService: findById(catalogId)
PrismaService - -> CatalogService: Catalog Data
CatalogService -> CatalogService: check if catalog exists and if user has necessary permissions
CatalogService -> PrismaService: findFirst
PrismaService - -> CatalogService: Master Catalog Data
CatalogService -> CatalogService: manipulate master catalog data
CatalogService - -> CatalogController: master catalog data
CatalogController - -> Client: return master catalog data as response
@enduml

PlantUML version 1.2022.7(Mon Aug 22 17:01:30 UTC 2022)
(GPL source distribution)
Java Runtime: OpenJDK Runtime Environment
JVM: OpenJDK 64-Bit Server VM
Default Encoding: UTF-8
Language: en
Country: null
--></g></svg>