<?xml version="1.0" encoding="UTF-8" standalone="no"?><svg xmlns="http://www.w3.org/2000/svg" xmlns:xlink="http://www.w3.org/1999/xlink" contentStyleType="text/css" height="620px" preserveAspectRatio="none" style="width:1150px;height:620px;background:#FFFFFF;" version="1.1" viewBox="0 0 1150 620" width="1150px" zoomAndPan="magnify"><defs/><g><rect fill="none" height="26.2969" id="_title" style="stroke:none;stroke-width:1.0;" width="378" x="387.5" y="10"/><text fill="#000000" font-family="sans-serif" font-size="14" font-weight="bold" lengthAdjust="spacing" textLength="368" x="392.5" y="27.9951">Get Product from a Catalog Sequence Diagram</text><line style="stroke:#181818;stroke-width:0.5;stroke-dasharray:5.0,5.0;" x1="27" x2="27" y1="118.5938" y2="540.1875"/><line style="stroke:#181818;stroke-width:0.5;stroke-dasharray:5.0,5.0;" x1="332" x2="332" y1="118.5938" y2="540.1875"/><line style="stroke:#181818;stroke-width:0.5;stroke-dasharray:5.0,5.0;" x1="689.5" x2="689.5" y1="118.5938" y2="540.1875"/><line style="stroke:#181818;stroke-width:0.5;stroke-dasharray:5.0,5.0;" x1="1109" x2="1109" y1="118.5938" y2="540.1875"/><text fill="#000000" font-family="sans-serif" font-size="14" lengthAdjust="spacing" textLength="39" x="5" y="115.292">Client</text><ellipse cx="27.5" cy="50.7969" fill="#E2E2F0" rx="8" ry="8" style="stroke:#181818;stroke-width:0.5;"/><path d="M27.5,58.7969 L27.5,85.7969 M14.5,66.7969 L40.5,66.7969 M27.5,85.7969 L14.5,100.7969 M27.5,85.7969 L40.5,100.7969 " fill="none" style="stroke:#181818;stroke-width:0.5;"/><text fill="#000000" font-family="sans-serif" font-size="14" lengthAdjust="spacing" textLength="39" x="5" y="552.1826">Client</text><ellipse cx="27.5" cy="563.9844" fill="#E2E2F0" rx="8" ry="8" style="stroke:#181818;stroke-width:0.5;"/><path d="M27.5,571.9844 L27.5,598.9844 M14.5,579.9844 L40.5,579.9844 M27.5,598.9844 L14.5,613.9844 M27.5,598.9844 L40.5,613.9844 " fill="none" style="stroke:#181818;stroke-width:0.5;"/><rect fill="#E2E2F0" height="30.2969" rx="2.5" ry="2.5" style="stroke:#181818;stroke-width:0.5;" width="133" x="266" y="87.2969"/><text fill="#000000" font-family="sans-serif" font-size="14" lengthAdjust="spacing" textLength="119" x="273" y="107.292">CatalogController</text><rect fill="#E2E2F0" height="30.2969" rx="2.5" ry="2.5" style="stroke:#181818;stroke-width:0.5;" width="133" x="266" y="539.1875"/><text fill="#000000" font-family="sans-serif" font-size="14" lengthAdjust="spacing" textLength="119" x="273" y="559.1826">CatalogController</text><rect fill="#E2E2F0" height="30.2969" rx="2.5" ry="2.5" style="stroke:#181818;stroke-width:0.5;" width="116" x="631.5" y="87.2969"/><text fill="#000000" font-family="sans-serif" font-size="14" lengthAdjust="spacing" textLength="102" x="638.5" y="107.292">CatalogService</text><rect fill="#E2E2F0" height="30.2969" rx="2.5" ry="2.5" style="stroke:#181818;stroke-width:0.5;" width="116" x="631.5" y="539.1875"/><text fill="#000000" font-family="sans-serif" font-size="14" lengthAdjust="spacing" textLength="102" x="638.5" y="559.1826">CatalogService</text><text fill="#000000" font-family="sans-serif" font-size="14" lengthAdjust="spacing" textLength="73" x="1070" y="115.292">CatalogDB</text><path d="M1091.5,66.2969 C1091.5,56.2969 1109.5,56.2969 1109.5,56.2969 C1109.5,56.2969 1127.5,56.2969 1127.5,66.2969 L1127.5,92.2969 C1127.5,102.2969 1109.5,102.2969 1109.5,102.2969 C1109.5,102.2969 1091.5,102.2969 1091.5,92.2969 L1091.5,66.2969 " fill="#E2E2F0" style="stroke:#181818;stroke-width:1.5;"/><path d="M1091.5,66.2969 C1091.5,76.2969 1109.5,76.2969 1109.5,76.2969 C1109.5,76.2969 1127.5,76.2969 1127.5,66.2969 " fill="none" style="stroke:#181818;stroke-width:1.5;"/><text fill="#000000" font-family="sans-serif" font-size="14" lengthAdjust="spacing" textLength="73" x="1070" y="552.1826">CatalogDB</text><path d="M1091.5,565.4844 C1091.5,555.4844 1109.5,555.4844 1109.5,555.4844 C1109.5,555.4844 1127.5,555.4844 1127.5,565.4844 L1127.5,591.4844 C1127.5,601.4844 1109.5,601.4844 1109.5,601.4844 C1109.5,601.4844 1091.5,601.4844 1091.5,591.4844 L1091.5,565.4844 " fill="#E2E2F0" style="stroke:#181818;stroke-width:1.5;"/><path d="M1091.5,565.4844 C1091.5,575.4844 1109.5,575.4844 1109.5,575.4844 C1109.5,575.4844 1127.5,575.4844 1127.5,565.4844 " fill="none" style="stroke:#181818;stroke-width:1.5;"/><polygon fill="#181818" points="320.5,145.7266,330.5,149.7266,320.5,153.7266,324.5,149.7266" style="stroke:#181818;stroke-width:1.0;"/><line style="stroke:#181818;stroke-width:1.0;" x1="27.5" x2="326.5" y1="149.7266" y2="149.7266"/><text fill="#000000" font-family="sans-serif" font-size="13" lengthAdjust="spacing" textLength="281" x="34.5" y="144.6606">GET /catalogs/:catalogId/products/:productId</text><polygon fill="#181818" points="677.5,174.8594,687.5,178.8594,677.5,182.8594,681.5,178.8594" style="stroke:#181818;stroke-width:1.0;"/><line style="stroke:#181818;stroke-width:1.0;" x1="332.5" x2="683.5" y1="178.8594" y2="178.8594"/><text fill="#000000" font-family="sans-serif" font-size="13" lengthAdjust="spacing" textLength="333" x="339.5" y="173.7935">getProductFromACatalog(catalogId, user, productId)</text><line style="stroke:#181818;stroke-width:1.0;" x1="689.5" x2="731.5" y1="207.9922" y2="207.9922"/><line style="stroke:#181818;stroke-width:1.0;" x1="731.5" x2="731.5" y1="207.9922" y2="220.9922"/><line style="stroke:#181818;stroke-width:1.0;" x1="690.5" x2="731.5" y1="220.9922" y2="220.9922"/><polygon fill="#181818" points="700.5,216.9922,690.5,220.9922,700.5,224.9922,696.5,220.9922" style="stroke:#181818;stroke-width:1.0;"/><text fill="#000000" font-family="sans-serif" font-size="13" lengthAdjust="spacing" textLength="406" x="696.5" y="202.9263">validateCatalogProductParameters(catalogId, userId, productId)</text><line style="stroke:#181818;stroke-width:1.0;" x1="689.5" x2="731.5" y1="250.125" y2="250.125"/><line style="stroke:#181818;stroke-width:1.0;" x1="731.5" x2="731.5" y1="250.125" y2="263.125"/><line style="stroke:#181818;stroke-width:1.0;" x1="690.5" x2="731.5" y1="263.125" y2="263.125"/><polygon fill="#181818" points="700.5,259.125,690.5,263.125,700.5,267.125,696.5,263.125" style="stroke:#181818;stroke-width:1.0;"/><text fill="#000000" font-family="sans-serif" font-size="13" lengthAdjust="spacing" textLength="214" x="696.5" y="245.0591">validateCatalog(catalogId, userId)</text><polygon fill="#181818" points="1097.5,288.2578,1107.5,292.2578,1097.5,296.2578,1101.5,292.2578" style="stroke:#181818;stroke-width:1.0;"/><line style="stroke:#181818;stroke-width:1.0;" x1="689.5" x2="1103.5" y1="292.2578" y2="292.2578"/><text fill="#000000" font-family="sans-serif" font-size="13" lengthAdjust="spacing" textLength="118" x="696.5" y="287.1919">findById(catalogId)</text><polygon fill="#181818" points="700.5,317.3906,690.5,321.3906,700.5,325.3906,696.5,321.3906" style="stroke:#181818;stroke-width:1.0;"/><line style="stroke:#181818;stroke-width:1.0;stroke-dasharray:2.0,2.0;" x1="694.5" x2="1108.5" y1="321.3906" y2="321.3906"/><text fill="#000000" font-family="sans-serif" font-size="13" lengthAdjust="spacing" textLength="84" x="706.5" y="316.3247">Catalog Data</text><line style="stroke:#181818;stroke-width:1.0;" x1="689.5" x2="731.5" y1="350.5234" y2="350.5234"/><line style="stroke:#181818;stroke-width:1.0;" x1="731.5" x2="731.5" y1="350.5234" y2="363.5234"/><line style="stroke:#181818;stroke-width:1.0;" x1="690.5" x2="731.5" y1="363.5234" y2="363.5234"/><polygon fill="#181818" points="700.5,359.5234,690.5,363.5234,700.5,367.5234,696.5,363.5234" style="stroke:#181818;stroke-width:1.0;"/><text fill="#000000" font-family="sans-serif" font-size="13" lengthAdjust="spacing" textLength="170" x="696.5" y="345.4575">Assert.assertTrue(catalog)</text><polygon fill="#181818" points="1097.5,388.6563,1107.5,392.6563,1097.5,396.6563,1101.5,392.6563" style="stroke:#181818;stroke-width:1.0;"/><line style="stroke:#181818;stroke-width:1.0;" x1="689.5" x2="1103.5" y1="392.6563" y2="392.6563"/><text fill="#000000" font-family="sans-serif" font-size="13" lengthAdjust="spacing" textLength="191" x="696.5" y="387.5903">product.findUnique(productId)</text><polygon fill="#181818" points="700.5,417.7891,690.5,421.7891,700.5,425.7891,696.5,421.7891" style="stroke:#181818;stroke-width:1.0;"/><line style="stroke:#181818;stroke-width:1.0;stroke-dasharray:2.0,2.0;" x1="694.5" x2="1108.5" y1="421.7891" y2="421.7891"/><text fill="#000000" font-family="sans-serif" font-size="13" lengthAdjust="spacing" textLength="84" x="706.5" y="416.7231">Product Data</text><line style="stroke:#181818;stroke-width:1.0;" x1="689.5" x2="731.5" y1="450.9219" y2="450.9219"/><line style="stroke:#181818;stroke-width:1.0;" x1="731.5" x2="731.5" y1="450.9219" y2="463.9219"/><line style="stroke:#181818;stroke-width:1.0;" x1="690.5" x2="731.5" y1="463.9219" y2="463.9219"/><polygon fill="#181818" points="700.5,459.9219,690.5,463.9219,700.5,467.9219,696.5,463.9219" style="stroke:#181818;stroke-width:1.0;"/><text fill="#000000" font-family="sans-serif" font-size="13" lengthAdjust="spacing" textLength="172" x="696.5" y="445.856">Assert.assertTrue(product)</text><polygon fill="#181818" points="343.5,489.0547,333.5,493.0547,343.5,497.0547,339.5,493.0547" style="stroke:#181818;stroke-width:1.0;"/><line style="stroke:#181818;stroke-width:1.0;stroke-dasharray:2.0,2.0;" x1="337.5" x2="688.5" y1="493.0547" y2="493.0547"/><text fill="#000000" font-family="sans-serif" font-size="13" lengthAdjust="spacing" textLength="92" x="349.5" y="487.9888">return product</text><polygon fill="#181818" points="38.5,518.1875,28.5,522.1875,38.5,526.1875,34.5,522.1875" style="stroke:#181818;stroke-width:1.0;"/><line style="stroke:#181818;stroke-width:1.0;stroke-dasharray:2.0,2.0;" x1="32.5" x2="331.5" y1="522.1875" y2="522.1875"/><text fill="#000000" font-family="sans-serif" font-size="13" lengthAdjust="spacing" textLength="174" x="44.5" y="517.1216">return product as response</text><!--MD5=[fa1e04af65f9a1ce41bb263e1912afce]
@startuml
title Get Product from a Catalog Sequence Diagram

actor Client
participant CatalogController
participant CatalogService
database CatalogDB

Client -> CatalogController: GET /catalogs/:catalogId/products/:productId
CatalogController -> CatalogService: getProductFromACatalog(catalogId, user, productId)
CatalogService -> CatalogService: validateCatalogProductParameters(catalogId, userId, productId)
CatalogService -> CatalogService: validateCatalog(catalogId, userId)
CatalogService -> CatalogDB: findById(catalogId)
CatalogDB - -> CatalogService: Catalog Data
CatalogService -> CatalogService: Assert.assertTrue(catalog)
CatalogService -> CatalogDB: product.findUnique(productId)
CatalogDB - -> CatalogService: Product Data
CatalogService -> CatalogService: Assert.assertTrue(product)
CatalogService - -> CatalogController: return product
CatalogController - -> Client: return product as response
@enduml

PlantUML version 1.2022.7(Mon Aug 22 17:01:30 UTC 2022)
(GPL source distribution)
Java Runtime: OpenJDK Runtime Environment
JVM: OpenJDK 64-Bit Server VM
Default Encoding: UTF-8
Language: en
Country: null
--></g></svg>