<?xml version="1.0" encoding="UTF-8" standalone="no"?><svg xmlns="http://www.w3.org/2000/svg" xmlns:xlink="http://www.w3.org/1999/xlink" contentStyleType="text/css" height="719px" preserveAspectRatio="none" style="width:474px;height:719px;background:#FFFFFF;" version="1.1" viewBox="0 0 474 719" width="474px" zoomAndPan="magnify"><defs/><g><!--MD5=[9d27c1769ccd7d217032576de7e98492]
class OEM--><g id="elem_OEM"><rect codeLine="1" fill="#F1F1F1" height="162.0781" id="OEM" rx="2.5" ry="2.5" style="stroke:#181818;stroke-width:0.5;" width="132" x="7" y="246.5"/><ellipse cx="52.75" cy="262.5" fill="#ADD1B2" rx="11" ry="11" style="stroke:#181818;stroke-width:1.0;"/><path d="M56.8594,268.5 L49.1406,268.5 L49.1406,256.1094 L56.8594,256.1094 L56.8594,258.2656 L51.5938,258.2656 L51.5938,260.9375 L56.3594,260.9375 L56.3594,263.0938 L51.5938,263.0938 L51.5938,266.3438 L56.8594,266.3438 L56.8594,268.5 Z " fill="#000000"/><text fill="#000000" font-family="sans-serif" font-size="14" lengthAdjust="spacing" textLength="32" x="73.25" y="267.3467">OEM</text><line style="stroke:#181818;stroke-width:0.5;" x1="8" x2="138" y1="278.5" y2="278.5"/><ellipse cx="18" cy="292.1484" fill="none" rx="3" ry="3" style="stroke:#038048;stroke-width:1.0;"/><text fill="#000000" font-family="sans-serif" font-size="14" lengthAdjust="spacing" textLength="44" x="27" y="295.4951">id [PK]</text><line style="stroke:#181818;stroke-width:1.0;" x1="8" x2="138" y1="302.7969" y2="302.7969"/><text fill="#000000" font-family="sans-serif" font-size="14" lengthAdjust="spacing" textLength="39" x="13" y="319.792">name</text><text fill="#000000" font-family="sans-serif" font-size="14" lengthAdjust="spacing" textLength="120" x="13" y="336.0889">oemNumber [UN]</text><text fill="#000000" font-family="sans-serif" font-size="14" lengthAdjust="spacing" textLength="17" x="13" y="352.3857">url</text><text fill="#000000" font-family="sans-serif" font-size="14" lengthAdjust="spacing" textLength="100" x="13" y="368.6826">createdAt [DF]</text><text fill="#000000" font-family="sans-serif" font-size="14" lengthAdjust="spacing" textLength="115" x="13" y="384.9795">updatedAt [UDF]</text><text fill="#000000" font-family="sans-serif" font-size="14" lengthAdjust="spacing" textLength="76" x="13" y="401.2764">status [DF]</text></g><!--MD5=[cec1402579598d8d753ecb125017740f]
class MasterCatalog--><g id="elem_MasterCatalog"><rect codeLine="12" fill="#F1F1F1" height="145.7813" id="MasterCatalog" rx="2.5" ry="2.5" style="stroke:#181818;stroke-width:0.5;" width="131" x="174.5" y="254.5"/><ellipse cx="189.5" cy="270.5" fill="#ADD1B2" rx="11" ry="11" style="stroke:#181818;stroke-width:1.0;"/><path d="M193.6094,276.5 L185.8906,276.5 L185.8906,264.1094 L193.6094,264.1094 L193.6094,266.2656 L188.3438,266.2656 L188.3438,268.9375 L193.1094,268.9375 L193.1094,271.0938 L188.3438,271.0938 L188.3438,274.3438 L193.6094,274.3438 L193.6094,276.5 Z " fill="#000000"/><text fill="#000000" font-family="sans-serif" font-size="14" lengthAdjust="spacing" textLength="99" x="203.5" y="275.3467">MasterCatalog</text><line style="stroke:#181818;stroke-width:0.5;" x1="175.5" x2="304.5" y1="286.5" y2="286.5"/><ellipse cx="185.5" cy="300.1484" fill="none" rx="3" ry="3" style="stroke:#038048;stroke-width:1.0;"/><text fill="#000000" font-family="sans-serif" font-size="14" lengthAdjust="spacing" textLength="44" x="194.5" y="303.4951">id [PK]</text><line style="stroke:#181818;stroke-width:1.0;" x1="175.5" x2="304.5" y1="310.7969" y2="310.7969"/><text fill="#000000" font-family="sans-serif" font-size="14" lengthAdjust="spacing" textLength="39" x="180.5" y="327.792">name</text><text fill="#000000" font-family="sans-serif" font-size="14" lengthAdjust="spacing" textLength="77" x="180.5" y="344.0889">description</text><text fill="#000000" font-family="sans-serif" font-size="14" lengthAdjust="spacing" textLength="100" x="180.5" y="360.3857">createdAt [DF]</text><text fill="#000000" font-family="sans-serif" font-size="14" lengthAdjust="spacing" textLength="115" x="180.5" y="376.6826">updatedAt [UDF]</text><text fill="#000000" font-family="sans-serif" font-size="14" lengthAdjust="spacing" textLength="76" x="180.5" y="392.9795">status [DF]</text></g><!--MD5=[b582e6ce3c86f1934c1c2f1f310142ca]
class Catalog--><g id="elem_Catalog"><rect codeLine="22" fill="#F1F1F1" height="145.7813" id="Catalog" rx="2.5" ry="2.5" style="stroke:#181818;stroke-width:0.5;" width="127" x="210.5" y="7"/><ellipse cx="244.85" cy="23" fill="#ADD1B2" rx="11" ry="11" style="stroke:#181818;stroke-width:1.0;"/><path d="M248.9594,29 L241.2406,29 L241.2406,16.6094 L248.9594,16.6094 L248.9594,18.7656 L243.6938,18.7656 L243.6938,21.4375 L248.4594,21.4375 L248.4594,23.5938 L243.6938,23.5938 L243.6938,26.8438 L248.9594,26.8438 L248.9594,29 Z " fill="#000000"/><text fill="#000000" font-family="sans-serif" font-size="14" lengthAdjust="spacing" textLength="52" x="263.15" y="27.8467">Catalog</text><line style="stroke:#181818;stroke-width:0.5;" x1="211.5" x2="336.5" y1="39" y2="39"/><ellipse cx="221.5" cy="52.6484" fill="none" rx="3" ry="3" style="stroke:#038048;stroke-width:1.0;"/><text fill="#000000" font-family="sans-serif" font-size="14" lengthAdjust="spacing" textLength="44" x="230.5" y="55.9951">id [PK]</text><line style="stroke:#181818;stroke-width:1.0;" x1="211.5" x2="336.5" y1="63.2969" y2="63.2969"/><text fill="#000000" font-family="sans-serif" font-size="14" lengthAdjust="spacing" textLength="39" x="216.5" y="80.292">name</text><text fill="#000000" font-family="sans-serif" font-size="14" lengthAdjust="spacing" textLength="77" x="216.5" y="96.5889">description</text><text fill="#000000" font-family="sans-serif" font-size="14" lengthAdjust="spacing" textLength="100" x="216.5" y="112.8857">createdAt [DF]</text><text fill="#000000" font-family="sans-serif" font-size="14" lengthAdjust="spacing" textLength="115" x="216.5" y="129.1826">updatedAt [UDF]</text><text fill="#000000" font-family="sans-serif" font-size="14" lengthAdjust="spacing" textLength="76" x="216.5" y="145.4795">status [DF]</text></g><!--MD5=[7f9c235a987b874b025f1d11898e2e09]
class MasterProduct--><g id="elem_MasterProduct"><rect codeLine="32" fill="#F1F1F1" height="210.9688" id="MasterProduct" rx="2.5" ry="2.5" style="stroke:#181818;stroke-width:0.5;" width="133" x="255.5" y="502"/><ellipse cx="270.5" cy="518" fill="#ADD1B2" rx="11" ry="11" style="stroke:#181818;stroke-width:1.0;"/><path d="M274.6094,524 L266.8906,524 L266.8906,511.6094 L274.6094,511.6094 L274.6094,513.7656 L269.3438,513.7656 L269.3438,516.4375 L274.1094,516.4375 L274.1094,518.5938 L269.3438,518.5938 L269.3438,521.8438 L274.6094,521.8438 L274.6094,524 Z " fill="#000000"/><text fill="#000000" font-family="sans-serif" font-size="14" lengthAdjust="spacing" textLength="101" x="284.5" y="522.8467">MasterProduct</text><line style="stroke:#181818;stroke-width:0.5;" x1="256.5" x2="387.5" y1="534" y2="534"/><ellipse cx="266.5" cy="547.6484" fill="none" rx="3" ry="3" style="stroke:#038048;stroke-width:1.0;"/><text fill="#000000" font-family="sans-serif" font-size="14" lengthAdjust="spacing" textLength="44" x="275.5" y="550.9951">id [PK]</text><line style="stroke:#181818;stroke-width:1.0;" x1="256.5" x2="387.5" y1="558.2969" y2="558.2969"/><text fill="#000000" font-family="sans-serif" font-size="14" lengthAdjust="spacing" textLength="116" x="261.5" y="575.292">partNumber [UN]</text><text fill="#000000" font-family="sans-serif" font-size="14" lengthAdjust="spacing" textLength="39" x="261.5" y="591.5889">name</text><text fill="#000000" font-family="sans-serif" font-size="14" lengthAdjust="spacing" textLength="77" x="261.5" y="607.8857">description</text><text fill="#000000" font-family="sans-serif" font-size="14" lengthAdjust="spacing" textLength="34" x="261.5" y="624.1826">price</text><text fill="#000000" font-family="sans-serif" font-size="14" lengthAdjust="spacing" textLength="30" x="261.5" y="640.4795">logo</text><text fill="#000000" font-family="sans-serif" font-size="14" lengthAdjust="spacing" textLength="48" x="261.5" y="656.7764">picture</text><text fill="#000000" font-family="sans-serif" font-size="14" lengthAdjust="spacing" textLength="100" x="261.5" y="673.0732">createdAt [DF]</text><text fill="#000000" font-family="sans-serif" font-size="14" lengthAdjust="spacing" textLength="115" x="261.5" y="689.3701">updatedAt [UDF]</text><text fill="#000000" font-family="sans-serif" font-size="14" lengthAdjust="spacing" textLength="76" x="261.5" y="705.667">status [DF]</text></g><!--MD5=[72136138052d025cffdce3c22fbd185f]
class Product--><g id="elem_Product"><rect codeLine="46" fill="#F1F1F1" height="194.6719" id="Product" rx="2.5" ry="2.5" style="stroke:#181818;stroke-width:0.5;" width="127" x="340.5" y="230"/><ellipse cx="373.95" cy="246" fill="#ADD1B2" rx="11" ry="11" style="stroke:#181818;stroke-width:1.0;"/><path d="M378.0594,252 L370.3406,252 L370.3406,239.6094 L378.0594,239.6094 L378.0594,241.7656 L372.7938,241.7656 L372.7938,244.4375 L377.5594,244.4375 L377.5594,246.5938 L372.7938,246.5938 L372.7938,249.8438 L378.0594,249.8438 L378.0594,252 Z " fill="#000000"/><text fill="#000000" font-family="sans-serif" font-size="14" lengthAdjust="spacing" textLength="54" x="392.05" y="250.8467">Product</text><line style="stroke:#181818;stroke-width:0.5;" x1="341.5" x2="466.5" y1="262" y2="262"/><ellipse cx="351.5" cy="275.6484" fill="none" rx="3" ry="3" style="stroke:#038048;stroke-width:1.0;"/><text fill="#000000" font-family="sans-serif" font-size="14" lengthAdjust="spacing" textLength="44" x="360.5" y="278.9951">id [PK]</text><line style="stroke:#181818;stroke-width:1.0;" x1="341.5" x2="466.5" y1="286.2969" y2="286.2969"/><text fill="#000000" font-family="sans-serif" font-size="14" lengthAdjust="spacing" textLength="39" x="346.5" y="303.292">name</text><text fill="#000000" font-family="sans-serif" font-size="14" lengthAdjust="spacing" textLength="77" x="346.5" y="319.5889">description</text><text fill="#000000" font-family="sans-serif" font-size="14" lengthAdjust="spacing" textLength="34" x="346.5" y="335.8857">price</text><text fill="#000000" font-family="sans-serif" font-size="14" lengthAdjust="spacing" textLength="30" x="346.5" y="352.1826">logo</text><text fill="#000000" font-family="sans-serif" font-size="14" lengthAdjust="spacing" textLength="48" x="346.5" y="368.4795">picture</text><text fill="#000000" font-family="sans-serif" font-size="14" lengthAdjust="spacing" textLength="100" x="346.5" y="384.7764">createdAt [DF]</text><text fill="#000000" font-family="sans-serif" font-size="14" lengthAdjust="spacing" textLength="115" x="346.5" y="401.0732">updatedAt [UDF]</text><text fill="#000000" font-family="sans-serif" font-size="14" lengthAdjust="spacing" textLength="76" x="346.5" y="417.3701">status [DF]</text></g><!--MD5=[03ef2648c78a97c125558670c6e27b6b]
link Catalog to OEM--><g id="link_Catalog_OEM"><path codeLine="59" d="M204.31,137.42 C188.86,151.49 173.18,167.13 160,183 C145.74,200.17 132.23,219.91 120.29,239.15 " fill="none" id="Catalog-OEM" style="stroke:#181818;stroke-width:1.0;"/><line style="stroke:#181818;stroke-width:1.0;" x1="120.1572" x2="121.0825" y1="239.3833" y2="249.3404"/><line style="stroke:#181818;stroke-width:1.0;" x1="120.1572" x2="110.8575" y1="239.3833" y2="243.0596"/><line style="stroke:#181818;stroke-width:1.0;" x1="120.1572" x2="115.97" y1="239.3833" y2="246.2"/><ellipse cx="123.2976" cy="234.2708" fill="none" rx="4" ry="4" style="stroke:#181818;stroke-width:1.0;"/><line style="stroke:#181818;stroke-width:1.0;" x1="204.7907" x2="210.1472" y1="131.6072" y2="137.5493"/><line style="stroke:#181818;stroke-width:1.0;" x1="202.5624" x2="207.9189" y1="133.6158" y2="139.5579"/><line style="stroke:#181818;stroke-width:1.0;" x1="204.4979" x2="210.44" y1="137.2565" y2="131.9"/><text fill="#000000" font-family="sans-serif" font-size="13" lengthAdjust="spacing" textLength="52" x="161" y="196.0669">includes</text></g><!--MD5=[ab6f7126114db8fa945bb9660a848403]
link Catalog to MasterCatalog--><g id="link_Catalog_MasterCatalog"><path codeLine="60" d="M230.7,160.94 C228.01,168.25 225.7,175.66 224,183 C219.3,203.26 219.33,225.47 221.51,246.23 " fill="none" id="Catalog-MasterCatalog" style="stroke:#181818;stroke-width:1.0;"/><line style="stroke:#181818;stroke-width:1.0;" x1="221.5329" x2="228.4469" y1="246.4675" y2="253.6922"/><line style="stroke:#181818;stroke-width:1.0;" x1="221.5329" x2="216.5331" y1="246.4675" y2="255.1278"/><line style="stroke:#181818;stroke-width:1.0;" x1="221.5329" x2="222.49" y1="246.4675" y2="254.41"/><ellipse cx="220.8151" cy="240.5106" fill="none" rx="4" ry="4" style="stroke:#181818;stroke-width:1.0;"/><line style="stroke:#181818;stroke-width:1.0;" x1="228.586" x2="236.0469" y1="155.3369" y2="158.224"/><line style="stroke:#181818;stroke-width:1.0;" x1="227.5033" x2="234.9642" y1="158.1347" y2="161.0218"/><line style="stroke:#181818;stroke-width:1.0;" x1="230.8728" x2="233.76" y1="160.5109" y2="153.05"/><text fill="#000000" font-family="sans-serif" font-size="13" lengthAdjust="spacing" textLength="52" x="225" y="196.0669">includes</text></g><!--MD5=[d88dd8880c36eab9d6aef5069e2c5939]
link Catalog to Product--><g id="link_Catalog_Product"><path codeLine="61" d="M300.45,160.82 C305.73,174.14 311.63,187.64 318,200 C323.44,210.55 329.6,221.28 336.06,231.8 " fill="none" id="Catalog-Product" style="stroke:#181818;stroke-width:1.0;"/><line style="stroke:#181818;stroke-width:1.0;" x1="336.1087" x2="340.35" y1="231.8868" y2="234.4287"/><line style="stroke:#181818;stroke-width:1.0;" x1="336.1087" x2="340.35" y1="231.8868" y2="242.9113"/><line style="stroke:#181818;stroke-width:1.0;" x1="336.1087" x2="340.35" y1="231.8868" y2="238.67"/><line style="stroke:#181818;stroke-width:1.0;" x1="295.1418" x2="302.5978" y1="158.1778" y2="155.2782"/><line style="stroke:#181818;stroke-width:1.0;" x1="296.2291" x2="303.6851" y1="160.9738" y2="158.0742"/><line style="stroke:#181818;stroke-width:1.0;" x1="300.3196" x2="297.42" y1="160.456" y2="153"/><text fill="#000000" font-family="sans-serif" font-size="13" lengthAdjust="spacing" textLength="54" x="319" y="196.0669">contains</text></g><!--MD5=[2fd2893e755a959b5fb3c4c8acb428c3]
link Product to Catalog--><g id="link_Product_Catalog"><path codeLine="65" d="M392.92,221.97 C389.24,208.41 384.39,195.06 378,183 C369.19,166.38 356.73,150.81 343.47,137.08 " fill="none" id="Product-Catalog" style="stroke:#181818;stroke-width:1.0;"/><line style="stroke:#181818;stroke-width:1.0;" x1="337.7286" x2="343.4068" y1="136.9668" y2="131.3314"/><line style="stroke:#181818;stroke-width:1.0;" x1="339.8419" x2="345.5201" y1="139.0961" y2="133.4607"/><line style="stroke:#181818;stroke-width:1.0;" x1="343.3854" x2="337.75" y1="136.9882" y2="131.31"/><line style="stroke:#181818;stroke-width:1.0;" x1="392.9795" x2="400.7651" y1="222.2065" y2="228.4821"/><line style="stroke:#181818;stroke-width:1.0;" x1="392.9795" x2="389.1349" y1="222.2065" y2="231.4379"/><line style="stroke:#181818;stroke-width:1.0;" x1="392.9795" x2="394.95" y1="222.2065" y2="229.96"/><ellipse cx="391.5016" cy="216.3913" fill="none" rx="4" ry="4" style="stroke:#181818;stroke-width:1.0;"/><text fill="#000000" font-family="sans-serif" font-size="13" lengthAdjust="spacing" textLength="68" x="385" y="196.0669">included in</text></g><!--MD5=[1aceb8acee2a7c12f58a4e8a87aa9274]
link MasterCatalog to MasterProduct--><g id="link_MasterCatalog_MasterProduct"><path codeLine="63" d="M263.6,408.51 C271.44,435.1 280.33,465.23 288.76,493.81 " fill="none" id="MasterCatalog-MasterProduct" style="stroke:#181818;stroke-width:1.0;"/><line style="stroke:#181818;stroke-width:1.0;" x1="288.8588" x2="296.8831" y1="494.1592" y2="500.1266"/><line style="stroke:#181818;stroke-width:1.0;" x1="288.8588" x2="285.3769" y1="494.1592" y2="503.5334"/><line style="stroke:#181818;stroke-width:1.0;" x1="288.8588" x2="291.13" y1="494.1592" y2="501.83"/><ellipse cx="287.1553" cy="488.4061" fill="none" rx="4" ry="4" style="stroke:#181818;stroke-width:1.0;"/><line style="stroke:#181818;stroke-width:1.0;" x1="258.6217" x2="266.2964" y1="405.7864" y2="403.5283"/><line style="stroke:#181818;stroke-width:1.0;" x1="259.4685" x2="267.1432" y1="408.6644" y2="406.4063"/><line style="stroke:#181818;stroke-width:1.0;" x1="263.5881" x2="261.33" y1="408.4947" y2="400.82"/><text fill="#000000" font-family="sans-serif" font-size="13" lengthAdjust="spacing" textLength="52" x="282" y="468.0669">includes</text></g><!--MD5=[573338d418544dd8d867ba0113cbf44d]
link Product to MasterProduct--><g id="link_Product_MasterProduct"><path codeLine="66" d="M373.11,433.24 C367.23,453.17 361.05,474.11 355.1,494.27 " fill="none" id="Product-MasterProduct" style="stroke:#181818;stroke-width:1.0;"/><line style="stroke:#181818;stroke-width:1.0;" x1="357.805" x2="350.1292" y1="499.2492" y2="496.995"/><line style="stroke:#181818;stroke-width:1.0;" x1="358.6504" x2="350.9745" y1="496.3708" y2="494.1165"/><line style="stroke:#181818;stroke-width:1.0;" x1="355.0942" x2="352.84" y1="494.2842" y2="501.96"/><line style="stroke:#181818;stroke-width:1.0;" x1="373.1688" x2="369.6869" y1="433.0108" y2="423.6366"/><line style="stroke:#181818;stroke-width:1.0;" x1="373.1688" x2="381.1931" y1="433.0108" y2="427.0434"/><line style="stroke:#181818;stroke-width:1.0;" x1="373.1688" x2="375.44" y1="433.0108" y2="425.34"/><ellipse cx="371.4653" cy="438.7639" fill="none" rx="4" ry="4" style="stroke:#181818;stroke-width:1.0;"/><text fill="#000000" font-family="sans-serif" font-size="13" lengthAdjust="spacing" textLength="68" x="366" y="468.0669">included in</text></g><!--MD5=[acbd7a7636d950ed1f0cbb9d4eef34fd]
@startuml
entity "OEM" as OEM {
  +id [PK]
  - -
  name
  oemNumber [UN]
  url
  createdAt [DF]
  updatedAt [UDF]
  status [DF]
}

entity "MasterCatalog" as MasterCatalog {
  +id [PK]
  - -
  name
  description
  createdAt [DF]
  updatedAt [UDF]
  status [DF]
}

entity "Catalog" as Catalog {
  +id [PK]
  - -
  name
  description
  createdAt [DF]
  updatedAt [UDF]
  status [DF]
}

entity "MasterProduct" as MasterProduct {
  +id [PK]
  - -
  partNumber [UN]
  name
  description
  price
  logo
  picture
  createdAt [DF]
  updatedAt [UDF]
  status [DF]
}

entity "Product" as Product {
  +id [PK]
  - -
  name
  description
  price
  logo
  picture
  createdAt [DF]
  updatedAt [UDF]
  status [DF]
}

Catalog ||- -o{ OEM : includes
Catalog ||- -o{ MasterCatalog : includes
Catalog ||- -{ Product : contains

MasterCatalog ||- -o{ MasterProduct : includes

Product }o- -|| Catalog : included in
Product }o- -|| MasterProduct : included in
@enduml

PlantUML version 1.2022.7(Mon Aug 22 17:01:30 UTC 2022)
(GPL source distribution)
Java Runtime: OpenJDK Runtime Environment
JVM: OpenJDK 64-Bit Server VM
Default Encoding: UTF-8
Language: en
Country: null
--></g></svg>